# Blender 4.0.2
# www.blender.org
o ring-planet-3.001
v 0.003437 0.000000 -0.143037
v -0.052768 0.000000 -0.131090
v -0.099254 0.000000 -0.097316
v -0.127984 0.000000 -0.047554
v -0.133990 0.000000 0.009592
v -0.116234 0.000000 0.064240
v -0.077786 0.000000 0.106941
v -0.025293 0.000000 0.130312
v 0.032167 0.000000 0.130312
v 0.084660 0.000000 0.106941
v 0.123108 0.000000 0.064240
v 0.140864 0.000000 0.009592
v 0.134858 0.000000 -0.047554
v 0.106128 0.000000 -0.097316
v 0.059642 0.000000 -0.131090
vn -0.0000 1.0000 -0.0000
s 0
f 2//1 3//1 4//1 5//1 6//1 7//1 8//1 9//1 10//1 11//1 12//1 13//1 14//1 15//1 1//1
