# Blender 3.6.5
# www.blender.org
mtllib ring.mtl
o ring.001
v -1.328776 -0.050509 0.086475
v -1.467242 -0.050509 0.488781
v -1.360691 -0.050509 0.834638
v -1.011431 -0.050509 1.027777
v -0.565381 -0.050509 1.052279
v 1.243444 -0.050509 0.052501
v 1.458146 -0.050509 -0.356412
v 1.461313 -0.050509 -0.757133
v 1.213114 -0.050509 -1.024357
v 0.788532 -0.050509 -1.112635
v 0.222927 -0.050509 -1.041470
v -1.315122 -0.050509 0.104101
v -1.445150 -0.050509 0.488681
v -1.343219 -0.050509 0.820965
v -1.004785 -0.050509 1.006718
v -0.572732 -0.050509 1.031605
v 1.230368 -0.050509 0.034734
v 1.436599 -0.050509 -0.361291
v 1.440780 -0.050509 -0.748729
v 1.201766 -0.050509 -1.005430
v 0.795203 -0.050509 -1.091703
v 0.259925 -0.050509 -1.031880
v -1.034025 -0.050509 -0.281249
v -1.019366 -0.050509 -0.322804
v -0.324285 -0.050509 1.004995
v -0.352177 -0.050509 0.997352
v 1.038605 -0.050509 0.254263
v 1.028749 -0.050509 0.284168
v 1.075340 -0.050509 0.214621
v 1.066067 -0.050509 0.254047
v 0.367339 -0.050509 -1.045837
v 0.322175 -0.050509 -1.061602
v -1.096061 -0.050509 -0.199798
v -1.082156 -0.050509 -0.251994
v -0.391419 -0.050509 1.004750
v -0.358068 -0.050509 1.018456
v -1.431802 -0.050509 0.393358
v -1.404509 -0.050509 0.296420
v -1.365029 -0.050509 0.199468
v -1.392079 -0.050509 0.748596
v -1.425388 -0.050509 0.667972
v -1.443095 -0.050509 0.580774
v -1.108693 -0.050509 0.976987
v -1.200487 -0.050509 0.935773
v -1.279038 -0.050509 0.883594
v -0.666318 -0.050509 1.034981
v -0.775409 -0.050509 1.033558
v -0.891175 -0.050509 1.024937
v -0.414826 -0.050509 1.011046
v -0.450070 -0.050509 1.018386
v -0.501316 -0.050509 1.025621
v 1.395401 -0.050509 -0.253434
v 1.343451 -0.050509 -0.147774
v 1.286517 -0.050509 -0.049866
v 1.464270 -0.050509 -0.661538
v 1.471450 -0.050509 -0.567018
v 1.462250 -0.050509 -0.466495
v 1.280172 -0.050509 -0.956344
v 1.347230 -0.050509 -0.896797
v 1.401310 -0.050509 -0.827390
v 0.909673 -0.050509 -1.086671
v 1.015923 -0.050509 -1.070627
v 1.113454 -0.050509 -1.043552
v 0.450592 -0.050509 -1.059370
v 0.556377 -0.050509 -1.074273
v 0.674608 -0.050509 -1.086425
v -1.453657 -0.050509 0.390214
v -1.425164 -0.050509 0.289695
v -1.383093 -0.050509 0.188143
v -1.411487 -0.050509 0.759150
v -1.446216 -0.050509 0.675073
v -1.464820 -0.050509 0.584315
v -1.118144 -0.050509 0.996921
v -1.212805 -0.050509 0.954125
v -1.294093 -0.050509 0.899870
v -0.663787 -0.050509 1.056590
v -0.776494 -0.050509 1.055504
v -0.895156 -0.050509 1.046681
v -0.387273 -0.050509 1.026401
v -0.429400 -0.050509 1.035656
v -0.487689 -0.050509 1.044767
v 1.416160 -0.050509 -0.245824
v 1.362779 -0.050509 -0.137416
v 1.303406 -0.050509 -0.036277
v 1.485848 -0.050509 -0.666539
v 1.493474 -0.050509 -0.568560
v 1.484228 -0.050509 -0.464688
v 1.294223 -0.050509 -0.973288
v 1.363837 -0.050509 -0.911266
v 1.420140 -0.050509 -0.838984
v 0.909901 -0.050509 -1.108036
v 1.020987 -0.050509 -1.091789
v 1.121990 -0.050509 -1.063896
v 0.413856 -0.050509 -1.076395
v 0.529883 -0.050509 -1.092772
v 0.658645 -0.050509 -1.106322
v -1.325363 -0.050509 0.090881
v -1.321949 -0.050509 0.095288
v -1.318536 -0.050509 0.099694
v -1.461719 -0.050509 0.488756
v -1.456196 -0.050509 0.488731
v -1.450673 -0.050509 0.488706
v -1.356323 -0.050509 0.831220
v -1.351955 -0.050509 0.827801
v -1.347587 -0.050509 0.824383
v -1.009769 -0.050509 1.022512
v -1.008108 -0.050509 1.017247
v -1.006446 -0.050509 1.011983
v -0.567219 -0.050509 1.047111
v -0.569057 -0.050509 1.041942
v -0.570894 -0.050509 1.036773
v 1.240175 -0.050509 0.048059
v 1.236906 -0.050509 0.043618
v 1.233637 -0.050509 0.039176
v 1.452759 -0.050509 -0.357632
v 1.447372 -0.050509 -0.358851
v 1.441986 -0.050509 -0.360071
v 1.456180 -0.050509 -0.755032
v 1.451047 -0.050509 -0.752931
v 1.445913 -0.050509 -0.750830
v 1.210277 -0.050509 -1.019625
v 1.207440 -0.050509 -1.014893
v 1.204603 -0.050509 -1.010162
v 0.790200 -0.050509 -1.107402
v 0.791867 -0.050509 -1.102169
v 0.793535 -0.050509 -1.096936
v 0.230076 -0.050509 -1.039086
v 0.239683 -0.050509 -1.036422
v 0.250180 -0.050509 -1.033887
v -1.065943 -0.050509 -0.236628
v -1.048463 -0.050509 -0.258592
v -1.039269 -0.050509 -0.271550
v -1.047990 -0.050509 -0.293578
v -1.028959 -0.050509 -0.316149
v -1.020856 -0.050509 -0.324289
v -1.021173 -0.050509 -0.315186
v -1.024651 -0.050509 -0.304520
v -1.029173 -0.050509 -0.292581
v -0.329165 -0.050509 1.002819
v -0.336272 -0.050509 1.000614
v -0.344379 -0.050509 0.998695
v 1.057984 -0.050509 0.231051
v 1.047701 -0.050509 0.241298
v 1.042051 -0.050509 0.248139
v 1.045668 -0.050509 0.273184
v 1.034318 -0.050509 0.283318
v 1.029529 -0.050509 0.286310
v 1.035374 -0.050509 0.262022
v 1.032364 -0.050509 0.270452
v 1.030025 -0.050509 0.278250
v 1.179932 -0.050509 0.101811
v 1.136789 -0.050509 0.152501
v 1.101678 -0.050509 0.189279
v 1.187677 -0.050509 0.124950
v 1.138405 -0.050509 0.181594
v 1.097308 -0.050509 0.224077
v 1.073021 -0.050509 0.224477
v 1.070703 -0.050509 0.234334
v 1.068385 -0.050509 0.244190
v 0.268598 -0.050509 -1.031084
v 0.283575 -0.050509 -1.032377
v 0.313553 -0.050509 -1.036921
v 0.221559 -0.050509 -1.043392
v 0.232293 -0.050509 -1.046279
v 0.263201 -0.050509 -1.051787
v 0.356048 -0.050509 -1.049778
v 0.344757 -0.050509 -1.053719
v 0.333466 -0.050509 -1.057661
v -1.257323 -0.050509 0.012384
v -1.197269 -0.050509 -0.071761
v -1.141377 -0.050509 -0.143950
v -1.264582 -0.050509 -0.013593
v -1.197037 -0.050509 -0.107160
v -1.133707 -0.050509 -0.188526
v -1.092585 -0.050509 -0.212847
v -1.089109 -0.050509 -0.225896
v -1.085633 -0.050509 -0.238945
v -0.358684 -0.050509 0.997033
v -0.365858 -0.050509 0.997933
v -0.375983 -0.050509 1.000401
v -0.323502 -0.050509 1.006949
v -0.327807 -0.050509 1.009328
v -0.338837 -0.050509 1.012902
v -0.383081 -0.050509 1.008176
v -0.374743 -0.050509 1.011603
v -0.366406 -0.050509 1.015029
v -1.061435 -0.050509 -0.250890
v -1.043428 -0.050509 -0.273175
v -1.034135 -0.050509 -0.285320
v -1.056937 -0.050509 -0.265138
v -1.038479 -0.050509 -0.287653
v -1.029250 -0.050509 -0.298910
v -1.052458 -0.050509 -0.279365
v -1.033676 -0.050509 -0.301954
v -1.024848 -0.050509 -0.311912
v -1.437266 -0.050509 0.392572
v -1.409673 -0.050509 0.294739
v -1.369545 -0.050509 0.196636
v -1.442729 -0.050509 0.391786
v -1.414836 -0.050509 0.293058
v -1.374061 -0.050509 0.193805
v -1.448193 -0.050509 0.391000
v -1.420000 -0.050509 0.291376
v -1.378577 -0.050509 0.190974
v -1.396931 -0.050509 0.751234
v -1.430595 -0.050509 0.669748
v -1.448526 -0.050509 0.581660
v -1.401783 -0.050509 0.753873
v -1.435802 -0.050509 0.671523
v -1.453958 -0.050509 0.582545
v -1.406635 -0.050509 0.756511
v -1.441009 -0.050509 0.673298
v -1.459389 -0.050509 0.583430
v -1.111056 -0.050509 0.981970
v -1.203567 -0.050509 0.940361
v -1.282802 -0.050509 0.887663
v -1.113418 -0.050509 0.986954
v -1.206646 -0.050509 0.944949
v -1.286566 -0.050509 0.891732
v -1.115781 -0.050509 0.991937
v -1.209725 -0.050509 0.949537
v -1.290330 -0.050509 0.895801
v -0.665685 -0.050509 1.040383
v -0.775680 -0.050509 1.039045
v -0.892170 -0.050509 1.030373
v -0.665052 -0.050509 1.045785
v -0.775951 -0.050509 1.044531
v -0.893165 -0.050509 1.035809
v -0.664420 -0.050509 1.051188
v -0.776222 -0.050509 1.050018
v -0.894161 -0.050509 1.041245
v 1.054892 -0.050509 0.241596
v 1.044253 -0.050509 0.251899
v 1.038580 -0.050509 0.257950
v 1.051807 -0.050509 0.252135
v 1.040860 -0.050509 0.262448
v 1.035269 -0.050509 0.267715
v 1.048734 -0.050509 0.262663
v 1.037561 -0.050509 0.272909
v 1.032268 -0.050509 0.277190
v 1.400591 -0.050509 -0.251531
v 1.348283 -0.050509 -0.145184
v 1.290739 -0.050509 -0.046469
v 1.405780 -0.050509 -0.249629
v 1.353115 -0.050509 -0.142595
v 1.294961 -0.050509 -0.043072
v 1.410970 -0.050509 -0.247727
v 1.357947 -0.050509 -0.140005
v 1.299184 -0.050509 -0.039674
v 1.469665 -0.050509 -0.662788
v 1.476956 -0.050509 -0.567404
v 1.467744 -0.050509 -0.466043
v 1.475059 -0.050509 -0.664038
v 1.482462 -0.050509 -0.567789
v 1.473239 -0.050509 -0.465591
v 1.480454 -0.050509 -0.665289
v 1.487968 -0.050509 -0.568175
v 1.478733 -0.050509 -0.465139
v 1.283685 -0.050509 -0.960580
v 1.351382 -0.050509 -0.900414
v 1.406018 -0.050509 -0.830288
v 1.287197 -0.050509 -0.964816
v 1.355534 -0.050509 -0.904031
v 1.410725 -0.050509 -0.833187
v 1.290710 -0.050509 -0.969052
v 1.359686 -0.050509 -0.907649
v 1.415432 -0.050509 -0.836085
v 0.909730 -0.050509 -1.092012
v 1.017189 -0.050509 -1.075917
v 1.115588 -0.050509 -1.048638
v 0.909787 -0.050509 -1.097353
v 1.018455 -0.050509 -1.081208
v 1.117722 -0.050509 -1.053724
v 0.909844 -0.050509 -1.102694
v 1.019721 -0.050509 -1.086498
v 1.119856 -0.050509 -1.058810
v 0.441408 -0.050509 -1.063626
v 0.549753 -0.050509 -1.078898
v 0.670618 -0.050509 -1.091399
v 0.432224 -0.050509 -1.067883
v 0.543130 -0.050509 -1.083522
v 0.666627 -0.050509 -1.096373
v 0.423040 -0.050509 -1.072139
v 0.536506 -0.050509 -1.088147
v 0.662636 -0.050509 -1.101347
v -0.394161 -0.050509 1.022562
v -0.401049 -0.050509 1.018723
v -0.407938 -0.050509 1.014885
v -0.434567 -0.050509 1.031339
v -0.439735 -0.050509 1.027021
v -0.444902 -0.050509 1.022703
v -0.491095 -0.050509 1.039981
v -0.494502 -0.050509 1.035194
v -0.497909 -0.050509 1.030407
v 1.181868 -0.050509 0.107596
v 1.137193 -0.050509 0.159774
v 1.100585 -0.050509 0.197979
v 1.183804 -0.050509 0.113381
v 1.137597 -0.050509 0.167047
v 1.099493 -0.050509 0.206678
v 1.185741 -0.050509 0.119165
v 1.138000 -0.050509 0.174320
v 1.098400 -0.050509 0.215378
v 0.256449 -0.050509 -1.034065
v 0.270618 -0.050509 -1.035833
v 0.300948 -0.050509 -1.040635
v 0.244387 -0.050509 -1.037137
v 0.257736 -0.050509 -1.039299
v 0.288352 -0.050509 -1.044350
v 0.232735 -0.050509 -1.040269
v 0.244977 -0.050509 -1.042784
v 0.275772 -0.050509 -1.048068
v -1.259137 -0.050509 0.005890
v -1.197211 -0.050509 -0.080611
v -1.139459 -0.050509 -0.155094
v -1.260952 -0.050509 -0.000604
v -1.197153 -0.050509 -0.089460
v -1.137542 -0.050509 -0.166238
v -1.262767 -0.050509 -0.007099
v -1.197095 -0.050509 -0.098310
v -1.135624 -0.050509 -0.177382
v -0.331674 -0.050509 1.004332
v -0.340315 -0.050509 1.001769
v -0.349418 -0.050509 0.999337
v -0.337167 -0.050509 1.006436
v -0.346610 -0.050509 1.003567
v -0.356192 -0.050509 1.000738
v -0.348104 -0.050509 1.009771
v -0.357382 -0.050509 1.006644
v -0.366677 -0.050509 1.003521
vn -0.0000 1.0000 -0.0000
vt 0.000000 0.000000
s 0
f 188/1/1 190/1/1 187/1/1
f 189/1/1 191/1/1 188/1/1
f 191/1/1 193/1/1 190/1/1
f 192/1/1 194/1/1 191/1/1
f 130/1/1 175/1/1 33/1/1
f 131/1/1 187/1/1 130/1/1
f 132/1/1 188/1/1 131/1/1
f 23/1/1 189/1/1 132/1/1
f 138/1/1 192/1/1 189/1/1
f 137/1/1 195/1/1 192/1/1
f 136/1/1 135/1/1 195/1/1
f 195/1/1 134/1/1 194/1/1
f 194/1/1 133/1/1 193/1/1
f 193/1/1 34/1/1 177/1/1
f 190/1/1 177/1/1 176/1/1
f 187/1/1 176/1/1 175/1/1
f 196/1/1 200/1/1 199/1/1
f 198/1/1 200/1/1 197/1/1
f 199/1/1 203/1/1 202/1/1
f 201/1/1 203/1/1 200/1/1
f 13/1/1 196/1/1 102/1/1
f 37/1/1 197/1/1 196/1/1
f 39/1/1 197/1/1 38/1/1
f 12/1/1 198/1/1 39/1/1
f 99/1/1 201/1/1 198/1/1
f 98/1/1 204/1/1 201/1/1
f 97/1/1 69/1/1 204/1/1
f 204/1/1 68/1/1 203/1/1
f 202/1/1 68/1/1 67/1/1
f 100/1/1 67/1/1 2/1/1
f 101/1/1 202/1/1 100/1/1
f 102/1/1 199/1/1 101/1/1
f 205/1/1 209/1/1 208/1/1
f 206/1/1 210/1/1 209/1/1
f 208/1/1 212/1/1 211/1/1
f 209/1/1 213/1/1 212/1/1
f 40/1/1 105/1/1 14/1/1
f 40/1/1 206/1/1 205/1/1
f 41/1/1 207/1/1 206/1/1
f 42/1/1 102/1/1 207/1/1
f 207/1/1 101/1/1 210/1/1
f 210/1/1 100/1/1 213/1/1
f 213/1/1 2/1/1 72/1/1
f 212/1/1 72/1/1 71/1/1
f 211/1/1 71/1/1 70/1/1
f 211/1/1 3/1/1 103/1/1
f 208/1/1 103/1/1 104/1/1
f 205/1/1 104/1/1 105/1/1
f 215/1/1 217/1/1 214/1/1
f 216/1/1 218/1/1 215/1/1
f 218/1/1 220/1/1 217/1/1
f 219/1/1 221/1/1 218/1/1
f 43/1/1 108/1/1 15/1/1
f 44/1/1 214/1/1 43/1/1
f 45/1/1 215/1/1 44/1/1
f 14/1/1 216/1/1 45/1/1
f 105/1/1 219/1/1 216/1/1
f 104/1/1 222/1/1 219/1/1
f 103/1/1 75/1/1 222/1/1
f 222/1/1 74/1/1 221/1/1
f 221/1/1 73/1/1 220/1/1
f 220/1/1 4/1/1 106/1/1
f 217/1/1 106/1/1 107/1/1
f 214/1/1 107/1/1 108/1/1
f 223/1/1 227/1/1 226/1/1
f 225/1/1 227/1/1 224/1/1
f 226/1/1 230/1/1 229/1/1
f 228/1/1 230/1/1 227/1/1
f 16/1/1 223/1/1 111/1/1
f 46/1/1 224/1/1 223/1/1
f 48/1/1 224/1/1 47/1/1
f 15/1/1 225/1/1 48/1/1
f 108/1/1 228/1/1 225/1/1
f 107/1/1 231/1/1 228/1/1
f 106/1/1 78/1/1 231/1/1
f 231/1/1 77/1/1 230/1/1
f 229/1/1 77/1/1 76/1/1
f 109/1/1 76/1/1 5/1/1
f 110/1/1 229/1/1 109/1/1
f 111/1/1 226/1/1 110/1/1
f 233/1/1 235/1/1 232/1/1
f 234/1/1 236/1/1 233/1/1
f 236/1/1 238/1/1 235/1/1
f 237/1/1 239/1/1 236/1/1
f 142/1/1 157/1/1 29/1/1
f 143/1/1 232/1/1 142/1/1
f 144/1/1 233/1/1 143/1/1
f 27/1/1 234/1/1 144/1/1
f 148/1/1 237/1/1 234/1/1
f 149/1/1 240/1/1 237/1/1
f 240/1/1 28/1/1 147/1/1
f 240/1/1 146/1/1 239/1/1
f 239/1/1 145/1/1 238/1/1
f 238/1/1 30/1/1 159/1/1
f 235/1/1 159/1/1 158/1/1
f 232/1/1 158/1/1 157/1/1
f 241/1/1 245/1/1 244/1/1
f 243/1/1 245/1/1 242/1/1
f 244/1/1 248/1/1 247/1/1
f 246/1/1 248/1/1 245/1/1
f 18/1/1 241/1/1 117/1/1
f 52/1/1 242/1/1 241/1/1
f 54/1/1 242/1/1 53/1/1
f 17/1/1 243/1/1 54/1/1
f 114/1/1 246/1/1 243/1/1
f 113/1/1 249/1/1 246/1/1
f 112/1/1 84/1/1 249/1/1
f 249/1/1 83/1/1 248/1/1
f 247/1/1 83/1/1 82/1/1
f 115/1/1 82/1/1 7/1/1
f 116/1/1 247/1/1 115/1/1
f 117/1/1 244/1/1 116/1/1
f 250/1/1 254/1/1 253/1/1
f 251/1/1 255/1/1 254/1/1
f 253/1/1 257/1/1 256/1/1
f 254/1/1 258/1/1 257/1/1
f 19/1/1 250/1/1 120/1/1
f 55/1/1 251/1/1 250/1/1
f 56/1/1 252/1/1 251/1/1
f 57/1/1 117/1/1 252/1/1
f 252/1/1 116/1/1 255/1/1
f 255/1/1 115/1/1 258/1/1
f 258/1/1 7/1/1 87/1/1
f 257/1/1 87/1/1 86/1/1
f 256/1/1 86/1/1 85/1/1
f 118/1/1 85/1/1 8/1/1
f 119/1/1 256/1/1 118/1/1
f 120/1/1 253/1/1 119/1/1
f 260/1/1 262/1/1 259/1/1
f 261/1/1 263/1/1 260/1/1
f 263/1/1 265/1/1 262/1/1
f 264/1/1 266/1/1 263/1/1
f 58/1/1 123/1/1 20/1/1
f 59/1/1 259/1/1 58/1/1
f 60/1/1 260/1/1 59/1/1
f 60/1/1 120/1/1 261/1/1
f 261/1/1 119/1/1 264/1/1
f 264/1/1 118/1/1 267/1/1
f 267/1/1 8/1/1 90/1/1
f 267/1/1 89/1/1 266/1/1
f 266/1/1 88/1/1 265/1/1
f 265/1/1 9/1/1 121/1/1
f 262/1/1 121/1/1 122/1/1
f 259/1/1 122/1/1 123/1/1
f 268/1/1 272/1/1 271/1/1
f 270/1/1 272/1/1 269/1/1
f 271/1/1 275/1/1 274/1/1
f 273/1/1 275/1/1 272/1/1
f 21/1/1 268/1/1 126/1/1
f 61/1/1 269/1/1 268/1/1
f 63/1/1 269/1/1 62/1/1
f 20/1/1 270/1/1 63/1/1
f 123/1/1 273/1/1 270/1/1
f 122/1/1 276/1/1 273/1/1
f 121/1/1 93/1/1 276/1/1
f 276/1/1 92/1/1 275/1/1
f 274/1/1 92/1/1 91/1/1
f 124/1/1 91/1/1 10/1/1
f 125/1/1 274/1/1 124/1/1
f 126/1/1 271/1/1 125/1/1
f 277/1/1 281/1/1 280/1/1
f 278/1/1 282/1/1 281/1/1
f 280/1/1 284/1/1 283/1/1
f 281/1/1 285/1/1 284/1/1
f 31/1/1 277/1/1 166/1/1
f 64/1/1 278/1/1 277/1/1
f 65/1/1 279/1/1 278/1/1
f 66/1/1 126/1/1 279/1/1
f 279/1/1 125/1/1 282/1/1
f 282/1/1 124/1/1 285/1/1
f 285/1/1 10/1/1 96/1/1
f 284/1/1 96/1/1 95/1/1
f 283/1/1 95/1/1 94/1/1
f 168/1/1 94/1/1 32/1/1
f 167/1/1 283/1/1 168/1/1
f 166/1/1 280/1/1 167/1/1
f 287/1/1 289/1/1 286/1/1
f 288/1/1 290/1/1 287/1/1
f 290/1/1 292/1/1 289/1/1
f 291/1/1 293/1/1 290/1/1
f 186/1/1 79/1/1 36/1/1
f 185/1/1 286/1/1 186/1/1
f 184/1/1 287/1/1 185/1/1
f 35/1/1 288/1/1 184/1/1
f 49/1/1 291/1/1 288/1/1
f 50/1/1 294/1/1 291/1/1
f 51/1/1 111/1/1 294/1/1
f 294/1/1 110/1/1 293/1/1
f 293/1/1 109/1/1 292/1/1
f 292/1/1 5/1/1 81/1/1
f 289/1/1 81/1/1 80/1/1
f 286/1/1 80/1/1 79/1/1
f 296/1/1 298/1/1 295/1/1
f 297/1/1 299/1/1 296/1/1
f 299/1/1 301/1/1 298/1/1
f 300/1/1 302/1/1 299/1/1
f 151/1/1 114/1/1 17/1/1
f 152/1/1 295/1/1 151/1/1
f 153/1/1 296/1/1 152/1/1
f 29/1/1 297/1/1 153/1/1
f 157/1/1 300/1/1 297/1/1
f 158/1/1 303/1/1 300/1/1
f 159/1/1 156/1/1 303/1/1
f 303/1/1 155/1/1 302/1/1
f 302/1/1 154/1/1 301/1/1
f 301/1/1 6/1/1 112/1/1
f 298/1/1 112/1/1 113/1/1
f 295/1/1 113/1/1 114/1/1
f 304/1/1 308/1/1 307/1/1
f 305/1/1 309/1/1 308/1/1
f 307/1/1 311/1/1 310/1/1
f 308/1/1 312/1/1 311/1/1
f 22/1/1 304/1/1 129/1/1
f 160/1/1 305/1/1 304/1/1
f 161/1/1 306/1/1 305/1/1
f 162/1/1 166/1/1 306/1/1
f 306/1/1 167/1/1 309/1/1
f 309/1/1 168/1/1 312/1/1
f 312/1/1 32/1/1 165/1/1
f 311/1/1 165/1/1 164/1/1
f 310/1/1 164/1/1 163/1/1
f 310/1/1 11/1/1 127/1/1
f 128/1/1 310/1/1 127/1/1
f 129/1/1 307/1/1 128/1/1
f 314/1/1 316/1/1 313/1/1
f 315/1/1 317/1/1 314/1/1
f 317/1/1 319/1/1 316/1/1
f 318/1/1 320/1/1 317/1/1
f 169/1/1 99/1/1 12/1/1
f 170/1/1 313/1/1 169/1/1
f 171/1/1 314/1/1 170/1/1
f 33/1/1 315/1/1 171/1/1
f 175/1/1 318/1/1 315/1/1
f 176/1/1 321/1/1 318/1/1
f 177/1/1 174/1/1 321/1/1
f 321/1/1 173/1/1 320/1/1
f 320/1/1 172/1/1 319/1/1
f 319/1/1 1/1/1 97/1/1
f 316/1/1 97/1/1 98/1/1
f 313/1/1 98/1/1 99/1/1
f 323/1/1 325/1/1 322/1/1
f 324/1/1 326/1/1 323/1/1
f 326/1/1 328/1/1 325/1/1
f 327/1/1 329/1/1 326/1/1
f 25/1/1 322/1/1 181/1/1
f 140/1/1 322/1/1 139/1/1
f 141/1/1 323/1/1 140/1/1
f 26/1/1 324/1/1 141/1/1
f 178/1/1 327/1/1 324/1/1
f 179/1/1 330/1/1 327/1/1
f 180/1/1 184/1/1 330/1/1
f 330/1/1 185/1/1 329/1/1
f 329/1/1 186/1/1 328/1/1
f 328/1/1 36/1/1 183/1/1
f 325/1/1 183/1/1 182/1/1
f 322/1/1 182/1/1 181/1/1
f 188/1/1 191/1/1 190/1/1
f 189/1/1 192/1/1 191/1/1
f 191/1/1 194/1/1 193/1/1
f 192/1/1 195/1/1 194/1/1
f 130/1/1 187/1/1 175/1/1
f 131/1/1 188/1/1 187/1/1
f 132/1/1 189/1/1 188/1/1
f 23/1/1 138/1/1 189/1/1
f 138/1/1 137/1/1 192/1/1
f 137/1/1 136/1/1 195/1/1
f 136/1/1 24/1/1 135/1/1
f 195/1/1 135/1/1 134/1/1
f 194/1/1 134/1/1 133/1/1
f 193/1/1 133/1/1 34/1/1
f 190/1/1 193/1/1 177/1/1
f 187/1/1 190/1/1 176/1/1
f 196/1/1 197/1/1 200/1/1
f 198/1/1 201/1/1 200/1/1
f 199/1/1 200/1/1 203/1/1
f 201/1/1 204/1/1 203/1/1
f 13/1/1 37/1/1 196/1/1
f 37/1/1 38/1/1 197/1/1
f 39/1/1 198/1/1 197/1/1
f 12/1/1 99/1/1 198/1/1
f 99/1/1 98/1/1 201/1/1
f 98/1/1 97/1/1 204/1/1
f 97/1/1 1/1/1 69/1/1
f 204/1/1 69/1/1 68/1/1
f 202/1/1 203/1/1 68/1/1
f 100/1/1 202/1/1 67/1/1
f 101/1/1 199/1/1 202/1/1
f 102/1/1 196/1/1 199/1/1
f 205/1/1 206/1/1 209/1/1
f 206/1/1 207/1/1 210/1/1
f 208/1/1 209/1/1 212/1/1
f 209/1/1 210/1/1 213/1/1
f 40/1/1 205/1/1 105/1/1
f 40/1/1 41/1/1 206/1/1
f 41/1/1 42/1/1 207/1/1
f 42/1/1 13/1/1 102/1/1
f 207/1/1 102/1/1 101/1/1
f 210/1/1 101/1/1 100/1/1
f 213/1/1 100/1/1 2/1/1
f 212/1/1 213/1/1 72/1/1
f 211/1/1 212/1/1 71/1/1
f 211/1/1 70/1/1 3/1/1
f 208/1/1 211/1/1 103/1/1
f 205/1/1 208/1/1 104/1/1
f 215/1/1 218/1/1 217/1/1
f 216/1/1 219/1/1 218/1/1
f 218/1/1 221/1/1 220/1/1
f 219/1/1 222/1/1 221/1/1
f 43/1/1 214/1/1 108/1/1
f 44/1/1 215/1/1 214/1/1
f 45/1/1 216/1/1 215/1/1
f 14/1/1 105/1/1 216/1/1
f 105/1/1 104/1/1 219/1/1
f 104/1/1 103/1/1 222/1/1
f 103/1/1 3/1/1 75/1/1
f 222/1/1 75/1/1 74/1/1
f 221/1/1 74/1/1 73/1/1
f 220/1/1 73/1/1 4/1/1
f 217/1/1 220/1/1 106/1/1
f 214/1/1 217/1/1 107/1/1
f 223/1/1 224/1/1 227/1/1
f 225/1/1 228/1/1 227/1/1
f 226/1/1 227/1/1 230/1/1
f 228/1/1 231/1/1 230/1/1
f 16/1/1 46/1/1 223/1/1
f 46/1/1 47/1/1 224/1/1
f 48/1/1 225/1/1 224/1/1
f 15/1/1 108/1/1 225/1/1
f 108/1/1 107/1/1 228/1/1
f 107/1/1 106/1/1 231/1/1
f 106/1/1 4/1/1 78/1/1
f 231/1/1 78/1/1 77/1/1
f 229/1/1 230/1/1 77/1/1
f 109/1/1 229/1/1 76/1/1
f 110/1/1 226/1/1 229/1/1
f 111/1/1 223/1/1 226/1/1
f 233/1/1 236/1/1 235/1/1
f 234/1/1 237/1/1 236/1/1
f 236/1/1 239/1/1 238/1/1
f 237/1/1 240/1/1 239/1/1
f 142/1/1 232/1/1 157/1/1
f 143/1/1 233/1/1 232/1/1
f 144/1/1 234/1/1 233/1/1
f 27/1/1 148/1/1 234/1/1
f 148/1/1 149/1/1 237/1/1
f 149/1/1 150/1/1 240/1/1
f 240/1/1 150/1/1 28/1/1
f 240/1/1 147/1/1 146/1/1
f 239/1/1 146/1/1 145/1/1
f 238/1/1 145/1/1 30/1/1
f 235/1/1 238/1/1 159/1/1
f 232/1/1 235/1/1 158/1/1
f 241/1/1 242/1/1 245/1/1
f 243/1/1 246/1/1 245/1/1
f 244/1/1 245/1/1 248/1/1
f 246/1/1 249/1/1 248/1/1
f 18/1/1 52/1/1 241/1/1
f 52/1/1 53/1/1 242/1/1
f 54/1/1 243/1/1 242/1/1
f 17/1/1 114/1/1 243/1/1
f 114/1/1 113/1/1 246/1/1
f 113/1/1 112/1/1 249/1/1
f 112/1/1 6/1/1 84/1/1
f 249/1/1 84/1/1 83/1/1
f 247/1/1 248/1/1 83/1/1
f 115/1/1 247/1/1 82/1/1
f 116/1/1 244/1/1 247/1/1
f 117/1/1 241/1/1 244/1/1
f 250/1/1 251/1/1 254/1/1
f 251/1/1 252/1/1 255/1/1
f 253/1/1 254/1/1 257/1/1
f 254/1/1 255/1/1 258/1/1
f 19/1/1 55/1/1 250/1/1
f 55/1/1 56/1/1 251/1/1
f 56/1/1 57/1/1 252/1/1
f 57/1/1 18/1/1 117/1/1
f 252/1/1 117/1/1 116/1/1
f 255/1/1 116/1/1 115/1/1
f 258/1/1 115/1/1 7/1/1
f 257/1/1 258/1/1 87/1/1
f 256/1/1 257/1/1 86/1/1
f 118/1/1 256/1/1 85/1/1
f 119/1/1 253/1/1 256/1/1
f 120/1/1 250/1/1 253/1/1
f 260/1/1 263/1/1 262/1/1
f 261/1/1 264/1/1 263/1/1
f 263/1/1 266/1/1 265/1/1
f 264/1/1 267/1/1 266/1/1
f 58/1/1 259/1/1 123/1/1
f 59/1/1 260/1/1 259/1/1
f 60/1/1 261/1/1 260/1/1
f 60/1/1 19/1/1 120/1/1
f 261/1/1 120/1/1 119/1/1
f 264/1/1 119/1/1 118/1/1
f 267/1/1 118/1/1 8/1/1
f 267/1/1 90/1/1 89/1/1
f 266/1/1 89/1/1 88/1/1
f 265/1/1 88/1/1 9/1/1
f 262/1/1 265/1/1 121/1/1
f 259/1/1 262/1/1 122/1/1
f 268/1/1 269/1/1 272/1/1
f 270/1/1 273/1/1 272/1/1
f 271/1/1 272/1/1 275/1/1
f 273/1/1 276/1/1 275/1/1
f 21/1/1 61/1/1 268/1/1
f 61/1/1 62/1/1 269/1/1
f 63/1/1 270/1/1 269/1/1
f 20/1/1 123/1/1 270/1/1
f 123/1/1 122/1/1 273/1/1
f 122/1/1 121/1/1 276/1/1
f 121/1/1 9/1/1 93/1/1
f 276/1/1 93/1/1 92/1/1
f 274/1/1 275/1/1 92/1/1
f 124/1/1 274/1/1 91/1/1
f 125/1/1 271/1/1 274/1/1
f 126/1/1 268/1/1 271/1/1
f 277/1/1 278/1/1 281/1/1
f 278/1/1 279/1/1 282/1/1
f 280/1/1 281/1/1 284/1/1
f 281/1/1 282/1/1 285/1/1
f 31/1/1 64/1/1 277/1/1
f 64/1/1 65/1/1 278/1/1
f 65/1/1 66/1/1 279/1/1
f 66/1/1 21/1/1 126/1/1
f 279/1/1 126/1/1 125/1/1
f 282/1/1 125/1/1 124/1/1
f 285/1/1 124/1/1 10/1/1
f 284/1/1 285/1/1 96/1/1
f 283/1/1 284/1/1 95/1/1
f 168/1/1 283/1/1 94/1/1
f 167/1/1 280/1/1 283/1/1
f 166/1/1 277/1/1 280/1/1
f 287/1/1 290/1/1 289/1/1
f 288/1/1 291/1/1 290/1/1
f 290/1/1 293/1/1 292/1/1
f 291/1/1 294/1/1 293/1/1
f 186/1/1 286/1/1 79/1/1
f 185/1/1 287/1/1 286/1/1
f 184/1/1 288/1/1 287/1/1
f 35/1/1 49/1/1 288/1/1
f 49/1/1 50/1/1 291/1/1
f 50/1/1 51/1/1 294/1/1
f 51/1/1 16/1/1 111/1/1
f 294/1/1 111/1/1 110/1/1
f 293/1/1 110/1/1 109/1/1
f 292/1/1 109/1/1 5/1/1
f 289/1/1 292/1/1 81/1/1
f 286/1/1 289/1/1 80/1/1
f 296/1/1 299/1/1 298/1/1
f 297/1/1 300/1/1 299/1/1
f 299/1/1 302/1/1 301/1/1
f 300/1/1 303/1/1 302/1/1
f 151/1/1 295/1/1 114/1/1
f 152/1/1 296/1/1 295/1/1
f 153/1/1 297/1/1 296/1/1
f 29/1/1 157/1/1 297/1/1
f 157/1/1 158/1/1 300/1/1
f 158/1/1 159/1/1 303/1/1
f 159/1/1 30/1/1 156/1/1
f 303/1/1 156/1/1 155/1/1
f 302/1/1 155/1/1 154/1/1
f 301/1/1 154/1/1 6/1/1
f 298/1/1 301/1/1 112/1/1
f 295/1/1 298/1/1 113/1/1
f 304/1/1 305/1/1 308/1/1
f 305/1/1 306/1/1 309/1/1
f 307/1/1 308/1/1 311/1/1
f 308/1/1 309/1/1 312/1/1
f 22/1/1 160/1/1 304/1/1
f 160/1/1 161/1/1 305/1/1
f 161/1/1 162/1/1 306/1/1
f 162/1/1 31/1/1 166/1/1
f 306/1/1 166/1/1 167/1/1
f 309/1/1 167/1/1 168/1/1
f 312/1/1 168/1/1 32/1/1
f 311/1/1 312/1/1 165/1/1
f 310/1/1 311/1/1 164/1/1
f 310/1/1 163/1/1 11/1/1
f 128/1/1 307/1/1 310/1/1
f 129/1/1 304/1/1 307/1/1
f 314/1/1 317/1/1 316/1/1
f 315/1/1 318/1/1 317/1/1
f 317/1/1 320/1/1 319/1/1
f 318/1/1 321/1/1 320/1/1
f 169/1/1 313/1/1 99/1/1
f 170/1/1 314/1/1 313/1/1
f 171/1/1 315/1/1 314/1/1
f 33/1/1 175/1/1 315/1/1
f 175/1/1 176/1/1 318/1/1
f 176/1/1 177/1/1 321/1/1
f 177/1/1 34/1/1 174/1/1
f 321/1/1 174/1/1 173/1/1
f 320/1/1 173/1/1 172/1/1
f 319/1/1 172/1/1 1/1/1
f 316/1/1 319/1/1 97/1/1
f 313/1/1 316/1/1 98/1/1
f 323/1/1 326/1/1 325/1/1
f 324/1/1 327/1/1 326/1/1
f 326/1/1 329/1/1 328/1/1
f 327/1/1 330/1/1 329/1/1
f 25/1/1 139/1/1 322/1/1
f 140/1/1 323/1/1 322/1/1
f 141/1/1 324/1/1 323/1/1
f 26/1/1 178/1/1 324/1/1
f 178/1/1 179/1/1 327/1/1
f 179/1/1 180/1/1 330/1/1
f 180/1/1 35/1/1 184/1/1
f 330/1/1 184/1/1 185/1/1
f 329/1/1 185/1/1 186/1/1
f 328/1/1 186/1/1 36/1/1
f 325/1/1 328/1/1 183/1/1
f 322/1/1 325/1/1 182/1/1
